<?xml version="1.0" encoding="utf-8"?>
<!-- Generator: Adobe Illustrator 16.0.0, SVG Export Plug-In . SVG Version: 6.00 Build 0)  -->
<!DOCTYPE svg PUBLIC "-//W3C//DTD SVG 1.1//EN" "http://www.w3.org/Graphics/SVG/1.1/DTD/svg11.dtd">
<svg version="1.1" id="Layer_1" xmlns="http://www.w3.org/2000/svg" xmlns:xlink="http://www.w3.org/1999/xlink" x="0px" y="0px"
	 width="393.208px" height="97.455px" viewBox="315.395 139.159 393.208 97.455"
	 style="enable-background:new 315.395 139.159 393.208 97.455;" xml:space="preserve">
<style type="text/css">
<![CDATA[
	.st0{display:inline;fill:#FF4000;}
	.st1{display:inline;fill:#FFFFFF;}
	.st2{fill:#FFFFFF;}
	.st3{display:inline;}
	.st4{display:none;}
]]>
</style>
<g id="Final_Logo_colors" class="st4">
	<path class="st0" d="M712.785,339.647c-1.172-3.604-3.042-6.798-5.602-9.578c-2.563-2.778-5.888-5.017-9.97-6.709
		c-4.084-1.693-9.034-2.541-14.852-2.541H640.41v43.776h-27.052c-0.271-5.693-1.281-11.083-3.047-16.154
		c-2.084-5.993-5.081-11.206-8.988-15.636c-3.909-4.431-8.688-7.902-14.332-10.423c-5.646-2.52-12.074-3.779-19.282-3.779
		c-7.211,0-13.638,1.261-19.282,3.779c-5.647,2.521-10.424,5.992-14.333,10.423c-3.908,4.43-6.902,9.643-8.988,15.636
		c-1.767,5.071-2.773,10.461-3.045,16.154h-23.097c-0.27-5.693-1.28-11.083-3.045-16.154c-2.085-5.993-5.08-11.206-8.988-15.636
		c-3.909-4.431-8.688-7.902-14.333-10.423c-5.646-2.52-12.072-3.779-19.281-3.779c-7.211,0-13.64,1.261-19.282,3.779
		c-5.647,2.521-10.424,5.992-14.332,10.423c-3.908,4.43-6.905,9.643-8.99,15.636c-1.765,5.071-2.772,10.461-3.045,16.154h-36.432
		v7.947v7.949v16.154H341.79v-75.828h-20.455v93.026h65.795v-2.477v-14.724v-16.153h21.835c0.467,2.084,1.042,4.127,1.746,6.123
		c2.085,5.908,5.082,11.03,8.99,15.373c3.908,4.346,8.685,7.774,14.332,10.293c5.644,2.52,12.07,3.778,19.282,3.778
		c7.209,0,13.636-1.26,19.281-3.778c5.646-2.519,10.423-5.947,14.333-10.293c3.908-4.343,6.903-9.465,8.988-15.373
		c0.705-1.996,1.28-4.039,1.747-6.123h25.692c0.468,2.084,1.042,4.127,1.746,6.123c2.086,5.908,5.08,11.03,8.988,15.373
		c3.909,4.346,8.686,7.774,14.333,10.293c5.646,2.52,12.071,3.778,19.282,3.778c7.208,0,13.636-1.26,19.282-3.778
		c5.645-2.519,10.423-5.947,14.332-10.293c3.907-4.343,6.904-9.465,8.988-15.373c0.705-1.996,1.28-4.039,1.746-6.123h28.353v33.353
		h20.454v-33.353h21.499c5.816,0,10.768-0.849,14.852-2.541c4.082-1.693,7.405-3.93,9.97-6.711c2.56-2.779,4.43-5.948,5.602-9.51
		c1.171-3.563,1.76-7.253,1.76-11.074C714.545,346.922,713.956,343.251,712.785,339.647z M477.223,379.125
		c-0.912,3.691-2.365,7.013-4.363,9.964c-1.999,2.955-4.604,5.322-7.817,7.103c-3.214,1.78-7.122,2.67-11.726,2.67
		c-4.605,0-8.515-0.89-11.728-2.67c-3.213-1.779-5.82-4.146-7.815-7.103c-2-2.951-3.453-6.272-4.365-9.964
		c-0.912-3.693-1.368-7.492-1.368-11.402c0-4.081,0.456-8.032,1.368-11.854s2.365-7.232,4.365-10.229
		c1.995-2.997,4.604-5.385,7.815-7.166c3.213-1.778,7.121-2.67,11.728-2.67c4.604,0,8.512,0.892,11.726,2.67
		c3.213,1.781,5.818,4.169,7.817,7.166c1.998,2.996,3.451,6.406,4.363,10.229s1.368,7.773,1.368,11.854
		C478.591,371.633,478.135,375.432,477.223,379.125z M591.616,379.125c-0.911,3.691-2.366,7.013-4.364,9.964
		c-1.999,2.955-4.604,5.322-7.817,7.103c-3.215,1.78-7.122,2.67-11.726,2.67c-4.605,0-8.515-0.89-11.726-2.67
		c-3.217-1.779-5.82-4.146-7.818-7.103c-1.999-2.951-3.451-6.272-4.364-9.964c-0.913-3.693-1.367-7.492-1.367-11.402
		c0-4.081,0.454-8.032,1.367-11.854s2.365-7.232,4.364-10.229c1.998-2.997,4.603-5.385,7.818-7.166
		c3.211-1.778,7.119-2.67,11.726-2.67c4.604,0,8.511,0.892,11.726,2.67c3.212,1.781,5.818,4.169,7.817,7.166
		c1.998,2.996,3.453,6.406,4.364,10.229c0.913,3.822,1.369,7.773,1.369,11.854C592.985,371.633,592.529,375.432,591.616,379.125z
		 M693.241,357.822c-0.999,1.824-2.324,3.236-3.976,4.233c-1.649,0.999-3.563,1.673-5.73,2.021c-2.171,0.349-4.43,0.521-6.774,0.521
		h-15.896v-27.882h15.896c2.346,0,4.604,0.175,6.774,0.521c2.169,0.35,4.081,1.021,5.73,2.021c1.65,0.999,2.977,2.411,3.976,4.233
		c0.999,1.825,1.499,4.215,1.499,7.168S694.24,355.997,693.241,357.822z"/>
	<rect x="80.907" y="103.886" class="st0" width="862.185" height="168.004"/>
	<path class="st1" d="M706.845,160.202c-1.172-3.604-3.042-6.797-5.601-9.578c-2.564-2.778-5.889-5.016-9.97-6.709
		c-4.084-1.693-9.034-2.541-14.853-2.541H634.47v43.777h-27.052c-0.271-5.694-1.281-11.083-3.046-16.155
		c-2.084-5.993-5.081-11.206-8.989-15.635c-3.909-4.431-8.688-7.903-14.332-10.423c-5.646-2.52-12.074-3.779-19.282-3.779
		c-7.211,0-13.638,1.26-19.281,3.779c-5.648,2.52-10.425,5.992-14.333,10.423c-3.908,4.429-6.903,9.642-8.989,15.635
		c-1.766,5.072-2.773,10.461-3.044,16.155h-23.097c-0.271-5.694-1.28-11.083-3.046-16.155c-2.085-5.993-5.079-11.206-8.987-15.635
		c-3.91-4.431-8.688-7.903-14.333-10.423c-5.646-2.52-12.073-3.779-19.282-3.779c-7.211,0-13.639,1.26-19.282,3.779
		c-5.646,2.52-10.424,5.992-14.332,10.423c-3.908,4.429-6.904,9.642-8.99,15.635c-1.765,5.072-2.772,10.461-3.045,16.155h-36.432
		v7.947v7.949v16.154H335.85v-75.828h-20.455V234.4h65.795v-2.477V217.2v-16.154h21.835c0.467,2.084,1.042,4.127,1.746,6.123
		c2.084,5.908,5.082,11.031,8.989,15.373c3.908,4.346,8.686,7.775,14.332,10.293c5.645,2.52,12.071,3.779,19.282,3.779
		c7.209,0,13.636-1.26,19.282-3.779c5.646-2.518,10.423-5.947,14.333-10.293c3.908-4.342,6.902-9.465,8.988-15.373
		c0.704-1.996,1.279-4.039,1.746-6.123h25.692c0.468,2.084,1.042,4.127,1.746,6.123c2.086,5.908,5.081,11.031,8.989,15.373
		c3.908,4.346,8.685,7.775,14.333,10.293c5.645,2.52,12.07,3.779,19.281,3.779c7.208,0,13.637-1.26,19.282-3.779
		c5.646-2.518,10.423-5.947,14.332-10.293c3.908-4.342,6.905-9.465,8.989-15.373c0.705-1.996,1.28-4.039,1.746-6.123h28.352V234.4
		h20.454v-33.354h21.499c5.817,0,10.769-0.848,14.853-2.541c4.081-1.693,7.404-3.93,9.97-6.711c2.559-2.779,4.429-5.948,5.601-9.51
		c1.171-3.562,1.76-7.252,1.76-11.074C708.604,167.478,708.016,163.807,706.845,160.202z M471.282,199.681
		c-0.912,3.691-2.366,7.014-4.364,9.965c-1.999,2.955-4.604,5.322-7.817,7.102c-3.214,1.781-7.122,2.67-11.726,2.67
		c-4.605,0-8.514-0.889-11.727-2.67c-3.214-1.779-5.82-4.146-7.816-7.102c-2-2.951-3.453-6.273-4.365-9.965
		c-0.912-3.693-1.368-7.492-1.368-11.402c0-4.081,0.456-8.033,1.368-11.855c0.912-3.822,2.365-7.232,4.365-10.229
		c1.996-2.997,4.604-5.385,7.816-7.166c3.213-1.779,7.121-2.67,11.727-2.67c4.604,0,8.512,0.891,11.726,2.67
		c3.214,1.781,5.818,4.169,7.817,7.166c1.998,2.996,3.452,6.406,4.364,10.229c0.912,3.823,1.368,7.774,1.368,11.855
		C472.65,192.188,472.194,195.987,471.282,199.681z M585.676,199.681c-0.911,3.691-2.366,7.014-4.363,9.965
		c-2,2.955-4.605,5.322-7.817,7.102c-3.215,1.781-7.123,2.67-11.727,2.67c-4.604,0-8.515-0.889-11.726-2.67
		c-3.216-1.779-5.82-4.146-7.818-7.102c-1.999-2.951-3.45-6.273-4.363-9.965c-0.913-3.693-1.367-7.492-1.367-11.402
		c0-4.081,0.454-8.033,1.367-11.855c0.913-3.822,2.364-7.232,4.363-10.229c1.998-2.997,4.604-5.385,7.818-7.166
		c3.211-1.779,7.12-2.67,11.726-2.67c4.604,0,8.512,0.891,11.727,2.67c3.212,1.781,5.817,4.169,7.817,7.166
		c1.997,2.996,3.452,6.406,4.363,10.229c0.913,3.822,1.369,7.774,1.369,11.855C587.045,192.188,586.589,195.987,585.676,199.681z
		 M687.301,178.377c-0.999,1.824-2.324,3.237-3.975,4.234c-1.65,0.999-3.563,1.673-5.731,2.02c-2.171,0.349-4.43,0.521-6.773,0.521
		h-15.896V157.27h15.896c2.345,0,4.604,0.175,6.773,0.521c2.169,0.35,4.081,1.022,5.731,2.021s2.976,2.411,3.975,4.233
		c0.999,1.825,1.499,4.215,1.499,7.168S688.3,176.552,687.301,178.377z"/>
	<rect x="80.907" y="473.886" class="st0" width="862.185" height="168.005"/>
	<path class="st3" d="M706.845,530.202c-1.172-3.604-3.042-6.797-5.601-9.578c-2.564-2.778-5.889-5.016-9.97-6.709
		c-4.084-1.693-9.034-2.541-14.853-2.541H634.47v43.777h-27.052c-0.271-5.694-1.281-11.083-3.046-16.155
		c-2.084-5.993-5.081-11.206-8.989-15.635c-3.909-4.432-8.688-7.903-14.332-10.423c-5.646-2.521-12.074-3.779-19.282-3.779
		c-7.211,0-13.638,1.26-19.281,3.779c-5.648,2.52-10.425,5.991-14.333,10.423c-3.908,4.429-6.903,9.642-8.989,15.635
		c-1.766,5.072-2.773,10.461-3.044,16.155h-23.097c-0.271-5.694-1.28-11.083-3.046-16.155c-2.085-5.993-5.079-11.206-8.987-15.635
		c-3.91-4.432-8.688-7.903-14.333-10.423c-5.646-2.521-12.073-3.779-19.282-3.779c-7.211,0-13.639,1.26-19.282,3.779
		c-5.646,2.52-10.424,5.991-14.332,10.423c-3.908,4.429-6.904,9.642-8.99,15.635c-1.765,5.072-2.772,10.461-3.045,16.155h-36.432
		v7.946v7.949v16.154H335.85v-75.828h-20.455V604.4h65.795v-2.478V587.2v-16.154h21.835c0.467,2.084,1.042,4.127,1.746,6.123
		c2.084,5.908,5.082,11.031,8.989,15.373c3.908,4.346,8.686,7.775,14.332,10.293c5.645,2.521,12.071,3.779,19.282,3.779
		c7.209,0,13.636-1.261,19.282-3.779c5.646-2.518,10.423-5.947,14.333-10.293c3.908-4.342,6.902-9.465,8.988-15.373
		c0.704-1.996,1.279-4.039,1.746-6.123h25.692c0.468,2.084,1.042,4.127,1.746,6.123c2.086,5.908,5.081,11.031,8.989,15.373
		c3.908,4.346,8.685,7.775,14.333,10.293c5.645,2.521,12.07,3.779,19.281,3.779c7.208,0,13.637-1.261,19.282-3.779
		c5.646-2.518,10.423-5.947,14.332-10.293c3.908-4.342,6.905-9.465,8.989-15.373c0.705-1.996,1.28-4.039,1.746-6.123h28.352V604.4
		h20.454v-33.354h21.499c5.817,0,10.769-0.848,14.853-2.541c4.081-1.692,7.404-3.93,9.97-6.711c2.559-2.779,4.429-5.948,5.601-9.51
		c1.171-3.563,1.76-7.252,1.76-11.074C708.604,537.479,708.016,533.807,706.845,530.202z M471.282,569.681
		c-0.912,3.691-2.366,7.015-4.364,9.966c-1.999,2.955-4.604,5.321-7.817,7.102c-3.214,1.781-7.122,2.67-11.726,2.67
		c-4.605,0-8.514-0.889-11.727-2.67c-3.214-1.779-5.82-4.146-7.816-7.102c-2-2.951-3.453-6.273-4.365-9.966
		s-1.368-7.491-1.368-11.401c0-4.081,0.456-8.033,1.368-11.855c0.912-3.821,2.365-7.231,4.365-10.229
		c1.996-2.997,4.604-5.385,7.816-7.166c3.213-1.779,7.121-2.67,11.727-2.67c4.604,0,8.512,0.891,11.726,2.67
		c3.214,1.781,5.818,4.169,7.817,7.166c1.998,2.996,3.452,6.406,4.364,10.229c0.912,3.823,1.368,7.774,1.368,11.855
		C472.65,562.188,472.194,565.987,471.282,569.681z M585.676,569.681c-0.911,3.691-2.366,7.015-4.363,9.966
		c-2,2.955-4.605,5.321-7.817,7.102c-3.215,1.781-7.123,2.67-11.727,2.67c-4.604,0-8.515-0.889-11.726-2.67
		c-3.216-1.779-5.82-4.146-7.818-7.102c-1.999-2.951-3.45-6.273-4.363-9.966s-1.367-7.491-1.367-11.401
		c0-4.081,0.454-8.033,1.367-11.855c0.913-3.821,2.364-7.231,4.363-10.229c1.998-2.997,4.604-5.385,7.818-7.166
		c3.211-1.779,7.12-2.67,11.726-2.67c4.604,0,8.512,0.891,11.727,2.67c3.212,1.781,5.817,4.169,7.817,7.166
		c1.997,2.996,3.452,6.406,4.363,10.229c0.913,3.822,1.369,7.774,1.369,11.855C587.045,562.188,586.589,565.987,585.676,569.681z
		 M687.301,548.377c-0.999,1.824-2.324,3.237-3.975,4.234c-1.65,0.999-3.563,1.673-5.731,2.02c-2.171,0.35-4.43,0.521-6.773,0.521
		h-15.896V527.27h15.896c2.345,0,4.604,0.176,6.773,0.521c2.169,0.35,4.081,1.021,5.731,2.021c1.65,0.998,2.976,2.41,3.975,4.232
		c0.999,1.825,1.499,4.215,1.499,7.168S688.3,546.552,687.301,548.377z"/>
	<rect x="1096.907" y="19.883" class="st3" width="862.185" height="168.004"/>
	<path class="st1" d="M1722.845,76.199c-1.172-3.604-3.042-6.797-5.601-9.578c-2.564-2.778-5.888-5.016-9.97-6.709
		c-4.084-1.693-9.034-2.541-14.853-2.541h-41.953v43.777h-27.052c-0.271-5.694-1.281-11.083-3.046-16.155
		c-2.084-5.993-5.081-11.206-8.989-15.635c-3.909-4.431-8.688-7.903-14.332-10.423c-5.646-2.52-12.074-3.779-19.282-3.779
		c-7.211,0-13.638,1.26-19.281,3.779c-5.648,2.52-10.424,5.992-14.333,10.423c-3.908,4.429-6.903,9.642-8.989,15.635
		c-1.766,5.072-2.773,10.461-3.044,16.155h-23.097c-0.271-5.694-1.28-11.083-3.046-16.155c-2.085-5.993-5.079-11.206-8.987-15.635
		c-3.91-4.431-8.688-7.903-14.333-10.423c-5.646-2.52-12.073-3.779-19.282-3.779c-7.211,0-13.639,1.26-19.282,3.779
		c-5.646,2.52-10.424,5.992-14.332,10.423c-3.908,4.429-6.905,9.642-8.99,15.635c-1.765,5.072-2.772,10.461-3.045,16.155h-36.432
		v7.947v7.949v16.154h-29.444V57.371h-20.455v93.027h65.795v-2.477v-14.723v-16.154h21.836c0.467,2.084,1.041,4.127,1.745,6.123
		c2.085,5.908,5.082,11.031,8.99,15.373c3.908,4.346,8.686,7.775,14.332,10.293c5.645,2.52,12.071,3.779,19.282,3.779
		c7.209,0,13.636-1.26,19.282-3.779c5.646-2.518,10.423-5.947,14.333-10.293c3.907-4.342,6.902-9.465,8.987-15.373
		c0.705-1.996,1.28-4.039,1.747-6.123h25.692c0.468,2.084,1.042,4.127,1.746,6.123c2.086,5.908,5.081,11.031,8.989,15.373
		c3.908,4.346,8.685,7.775,14.332,10.293c5.646,2.52,12.071,3.779,19.282,3.779c7.208,0,13.636-1.26,19.282-3.779
		c5.645-2.518,10.423-5.947,14.332-10.293c3.908-4.342,6.905-9.465,8.989-15.373c0.705-1.996,1.28-4.039,1.746-6.123h28.352v33.354
		h20.454v-33.354h21.499c5.817,0,10.768-0.848,14.853-2.541c4.082-1.693,7.404-3.93,9.97-6.711c2.559-2.779,4.429-5.948,5.601-9.51
		c1.171-3.563,1.76-7.252,1.76-11.074C1724.604,83.475,1724.016,79.804,1722.845,76.199z M1487.282,115.678
		c-0.912,3.691-2.366,7.014-4.364,9.965c-1.999,2.955-4.604,5.322-7.817,7.102c-3.214,1.781-7.122,2.67-11.726,2.67
		c-4.605,0-8.514-0.889-11.727-2.67c-3.214-1.779-5.82-4.146-7.816-7.102c-2-2.951-3.453-6.273-4.365-9.965
		c-0.912-3.693-1.368-7.492-1.368-11.402c0-4.081,0.456-8.033,1.368-11.855c0.912-3.822,2.365-7.232,4.365-10.229
		c1.996-2.997,4.604-5.385,7.816-7.166c3.213-1.779,7.12-2.67,11.727-2.67c4.604,0,8.512,0.891,11.726,2.67
		c3.214,1.781,5.818,4.169,7.817,7.166c1.998,2.996,3.452,6.406,4.364,10.229c0.912,3.823,1.368,7.774,1.368,11.855
		C1488.65,108.186,1488.194,111.984,1487.282,115.678z M1601.676,115.678c-0.911,3.691-2.365,7.014-4.363,9.965
		c-2,2.955-4.605,5.322-7.817,7.102c-3.215,1.781-7.123,2.67-11.726,2.67c-4.605,0-8.516-0.889-11.727-2.67
		c-3.216-1.779-5.82-4.146-7.818-7.102c-1.998-2.951-3.45-6.273-4.363-9.965c-0.913-3.693-1.367-7.492-1.367-11.402
		c0-4.081,0.454-8.033,1.367-11.855c0.913-3.822,2.365-7.232,4.363-10.229s4.604-5.385,7.818-7.166
		c3.211-1.779,7.12-2.67,11.727-2.67c4.603,0,8.511,0.891,11.726,2.67c3.212,1.781,5.817,4.169,7.817,7.166
		c1.998,2.996,3.452,6.406,4.363,10.229c0.913,3.822,1.369,7.774,1.369,11.855C1603.045,108.186,1602.589,111.984,1601.676,115.678z
		 M1703.301,94.374c-0.999,1.824-2.324,3.237-3.975,4.234c-1.65,0.999-3.563,1.673-5.731,2.02c-2.171,0.349-4.43,0.521-6.773,0.521
		h-15.896V73.267h15.896c2.345,0,4.604,0.175,6.773,0.521c2.169,0.35,4.081,1.022,5.731,2.021s2.976,2.411,3.975,4.233
		c0.999,1.825,1.499,4.215,1.499,7.168S1704.3,92.549,1703.301,94.374z"/>
	<rect x="1096.907" y="209.883" class="st1" width="862.185" height="168.005"/>
	<path class="st3" d="M1722.845,266.199c-1.172-3.604-3.042-6.797-5.601-9.578c-2.564-2.778-5.888-5.016-9.97-6.709
		c-4.084-1.693-9.034-2.541-14.853-2.541h-41.953v43.777h-27.052c-0.271-5.694-1.281-11.083-3.046-16.155
		c-2.084-5.993-5.081-11.206-8.989-15.635c-3.909-4.431-8.688-7.903-14.332-10.423c-5.646-2.52-12.074-3.779-19.282-3.779
		c-7.211,0-13.638,1.26-19.281,3.779c-5.648,2.52-10.424,5.992-14.333,10.423c-3.908,4.429-6.903,9.642-8.989,15.635
		c-1.766,5.072-2.773,10.461-3.044,16.155h-23.097c-0.271-5.694-1.28-11.083-3.046-16.155c-2.085-5.993-5.079-11.206-8.987-15.635
		c-3.91-4.431-8.688-7.903-14.333-10.423c-5.646-2.52-12.073-3.779-19.282-3.779c-7.211,0-13.639,1.26-19.282,3.779
		c-5.646,2.52-10.424,5.992-14.332,10.423c-3.908,4.429-6.905,9.642-8.99,15.635c-1.765,5.072-2.772,10.461-3.045,16.155h-36.432
		v7.947v7.949v16.154h-29.444V247.37h-20.455v93.027h65.795v-2.478v-14.723v-16.154h21.836c0.467,2.084,1.041,4.127,1.745,6.123
		c2.085,5.908,5.082,11.031,8.99,15.373c3.908,4.346,8.686,7.775,14.332,10.293c5.645,2.52,12.071,3.779,19.282,3.779
		c7.209,0,13.636-1.261,19.282-3.779c5.646-2.518,10.423-5.947,14.333-10.293c3.907-4.342,6.902-9.465,8.987-15.373
		c0.705-1.996,1.28-4.039,1.747-6.123h25.692c0.468,2.084,1.042,4.127,1.746,6.123c2.086,5.908,5.081,11.031,8.989,15.373
		c3.908,4.346,8.685,7.775,14.332,10.293c5.646,2.52,12.071,3.779,19.282,3.779c7.208,0,13.636-1.261,19.282-3.779
		c5.645-2.518,10.423-5.947,14.332-10.293c3.908-4.342,6.905-9.465,8.989-15.373c0.705-1.996,1.28-4.039,1.746-6.123h28.352v33.354
		h20.454v-33.354h21.499c5.817,0,10.768-0.848,14.853-2.541c4.082-1.693,7.404-3.93,9.97-6.711c2.559-2.779,4.429-5.948,5.601-9.51
		c1.171-3.562,1.76-7.252,1.76-11.074C1724.604,273.475,1724.016,269.804,1722.845,266.199z M1487.282,305.678
		c-0.912,3.691-2.366,7.014-4.364,9.964c-1.999,2.955-4.604,5.322-7.817,7.103c-3.214,1.781-7.122,2.67-11.726,2.67
		c-4.605,0-8.514-0.889-11.727-2.67c-3.214-1.779-5.82-4.146-7.816-7.103c-2-2.95-3.453-6.272-4.365-9.964
		c-0.912-3.693-1.368-7.492-1.368-11.402c0-4.081,0.456-8.033,1.368-11.855c0.912-3.822,2.365-7.232,4.365-10.229
		c1.996-2.997,4.604-5.385,7.816-7.166c3.213-1.779,7.12-2.67,11.727-2.67c4.604,0,8.512,0.891,11.726,2.67
		c3.214,1.781,5.818,4.169,7.817,7.166c1.998,2.996,3.452,6.406,4.364,10.229c0.912,3.823,1.368,7.774,1.368,11.855
		C1488.65,298.186,1488.194,301.984,1487.282,305.678z M1601.676,305.678c-0.911,3.691-2.365,7.014-4.363,9.964
		c-2,2.955-4.605,5.322-7.817,7.103c-3.215,1.781-7.123,2.67-11.726,2.67c-4.605,0-8.516-0.889-11.727-2.67
		c-3.216-1.779-5.82-4.146-7.818-7.103c-1.998-2.95-3.45-6.272-4.363-9.964c-0.913-3.693-1.367-7.492-1.367-11.402
		c0-4.081,0.454-8.033,1.367-11.855c0.913-3.822,2.365-7.232,4.363-10.229s4.604-5.385,7.818-7.166
		c3.211-1.779,7.12-2.67,11.727-2.67c4.603,0,8.511,0.891,11.726,2.67c3.212,1.781,5.817,4.169,7.817,7.166
		c1.998,2.996,3.452,6.406,4.363,10.229c0.913,3.822,1.369,7.774,1.369,11.855C1603.045,298.186,1602.589,301.984,1601.676,305.678z
		 M1703.301,284.374c-0.999,1.824-2.324,3.237-3.975,4.234c-1.65,0.999-3.563,1.673-5.731,2.02c-2.171,0.349-4.43,0.521-6.773,0.521
		h-15.896v-27.882h15.896c2.345,0,4.604,0.175,6.773,0.521c2.169,0.35,4.081,1.022,5.731,2.021s2.976,2.411,3.975,4.233
		c0.999,1.825,1.499,4.215,1.499,7.168S1704.3,282.549,1703.301,284.374z"/>
</g>
<g id="Layer_10" class="st4">
	<rect x="401.018" y="273.556" class="st0" width="221" height="221"/>
	<g class="st3">
		<polygon class="st2" points="511.518,353.078 459.008,415.695 490.969,415.695 490.969,458.09 532.066,458.09 532.066,415.695 
			564.023,415.695 		"/>
		<polygon class="st2" points="472.134,374.602 481.438,363.51 449.225,363.51 449.225,321.762 573.811,321.762 573.811,363.51 
			541.596,363.51 550.901,374.602 594.686,374.602 594.686,310.022 428.351,310.022 428.351,374.602 		"/>
	</g>
</g>
<g id="Update" class="st4">
	<text transform="matrix(1 0 0 1 19.1924 112.793)" class="st3" style="font-family:'Dekar'; font-size:121.7508;">LOOP</text>
	<path class="st3" d="M405.049,334.572v6.209h-17.654c-11.688,0-23.132-4.748-23.132-18.264c0-22.28,0-44.682,0-66.961h6.209v66.961
		c0,9.133,9.497,12.055,16.923,12.055H405.049z"/>
	<path class="st3" d="M384.716,334.828c9.101,0.758,12.801-8.463,13.417-15.863l1.466-17.594l6.188,0.516l-1.465,17.593
		c-0.972,11.647-6.652,22.657-20.12,21.535"/>
	<path class="st3" d="M489.306,301.775c22.28,0,44.684,0,66.962,0v6.209h-66.962"/>
	<rect x="417.047" y="205.5" class="st1" width="42.478" height="190.5"/>
	<rect x="481" y="205.5" class="st1" width="46.5" height="190.5"/>
	<path class="st3" d="M414.301,270.896c0-21.793,51.378-21.793,51.378,0v54.3c0,22.157-51.378,22.157-51.378,0V270.896z
		 M459.47,324.588l0.122-53.692c0-14.367-39.204-14.367-39.204,0l0.122,53.692c0,1.582,0.122,2.678,0.365,3.165
		c3.652,10.593,34.577,10.593,38.229,0C459.348,327.266,459.47,326.17,459.47,324.588z"/>
	<path class="st3" d="M478.219,270.896c0-21.793,51.378-21.793,51.378,0v54.3c0,22.157-51.378,22.157-51.378,0V270.896z
		 M523.389,324.588l0.121-53.692c0-14.367-39.203-14.367-39.203,0l0.122,53.692c0,1.582,0.121,2.678,0.365,3.165
		c3.652,10.593,34.576,10.593,38.229,0C523.267,327.266,523.389,326.17,523.389,324.588z"/>
	<path class="st3" d="M548.104,307.908v32.873h-5.967c0-28.124,0-57.101,0-85.225h22.891c9.86,0,22.522,4.87,22.522,16.314v19.602
		c0,10.958-11.323,16.436-22.646,16.436H548.104z M564.904,301.821c8.278,0,16.68-3.409,16.68-10.349V271.87
		c0-7.792-10.349-10.227-16.558-10.349h-16.925v40.299L564.904,301.821L564.904,301.821z"/>
</g>
<g id="Layer_4">
	<path class="st2" d="M706.845,160.202c-1.172-3.604-3.042-6.797-5.601-9.578c-2.564-2.778-5.889-5.016-9.97-6.709
		c-4.084-1.693-9.034-2.541-14.853-2.541H634.47v43.777h-27.052c-0.271-5.694-1.281-11.083-3.046-16.155
		c-2.084-5.993-5.081-11.206-8.989-15.635c-3.909-4.431-8.688-7.903-14.332-10.423c-5.646-2.52-12.074-3.779-19.282-3.779
		c-7.211,0-13.638,1.26-19.281,3.779c-5.648,2.52-10.425,5.992-14.333,10.423c-3.908,4.429-6.903,9.642-8.989,15.635
		c-1.766,5.072-2.773,10.461-3.044,16.155h-23.097c-0.271-5.694-1.28-11.083-3.046-16.155c-2.085-5.993-5.079-11.206-8.987-15.635
		c-3.91-4.431-8.688-7.903-14.333-10.423c-5.646-2.52-12.073-3.779-19.282-3.779c-7.211,0-13.639,1.26-19.282,3.779
		c-5.646,2.52-10.424,5.992-14.332,10.423c-3.908,4.429-6.904,9.642-8.99,15.635c-1.765,5.072-2.772,10.461-3.045,16.155h-36.432
		v7.947v7.949v16.154H335.85v-75.828h-20.455V234.4h65.795v-2.477V217.2v-16.154h21.835c0.467,2.084,1.042,4.127,1.746,6.123
		c2.084,5.908,5.082,11.031,8.989,15.373c3.908,4.346,8.686,7.775,14.332,10.293c5.645,2.52,12.071,3.779,19.282,3.779
		c7.209,0,13.636-1.26,19.282-3.779c5.646-2.518,10.423-5.947,14.333-10.293c3.908-4.342,6.902-9.465,8.988-15.373
		c0.704-1.996,1.279-4.039,1.746-6.123h25.692c0.468,2.084,1.042,4.127,1.746,6.123c2.086,5.908,5.081,11.031,8.989,15.373
		c3.908,4.346,8.685,7.775,14.333,10.293c5.645,2.52,12.07,3.779,19.281,3.779c7.208,0,13.637-1.26,19.282-3.779
		c5.646-2.518,10.423-5.947,14.332-10.293c3.908-4.342,6.905-9.465,8.989-15.373c0.705-1.996,1.28-4.039,1.746-6.123h28.352V234.4
		h20.454v-33.354h21.499c5.817,0,10.769-0.848,14.853-2.541c4.081-1.693,7.404-3.93,9.97-6.711c2.559-2.779,4.429-5.948,5.601-9.51
		c1.171-3.562,1.76-7.252,1.76-11.074C708.604,167.478,708.016,163.807,706.845,160.202z M471.282,199.681
		c-0.912,3.691-2.366,7.014-4.364,9.965c-1.999,2.955-4.604,5.322-7.817,7.102c-3.214,1.781-7.122,2.67-11.726,2.67
		c-4.605,0-8.514-0.889-11.727-2.67c-3.214-1.779-5.82-4.146-7.816-7.102c-2-2.951-3.453-6.273-4.365-9.965
		c-0.912-3.693-1.368-7.492-1.368-11.402c0-4.081,0.456-8.033,1.368-11.855c0.912-3.822,2.365-7.232,4.365-10.229
		c1.996-2.997,4.604-5.385,7.816-7.166c3.213-1.779,7.121-2.67,11.727-2.67c4.604,0,8.512,0.891,11.726,2.67
		c3.214,1.781,5.818,4.169,7.817,7.166c1.998,2.996,3.452,6.406,4.364,10.229c0.912,3.823,1.368,7.774,1.368,11.855
		C472.65,192.188,472.194,195.987,471.282,199.681z M585.676,199.681c-0.911,3.691-2.366,7.014-4.363,9.965
		c-2,2.955-4.605,5.322-7.817,7.102c-3.215,1.781-7.123,2.67-11.727,2.67c-4.604,0-8.515-0.889-11.726-2.67
		c-3.216-1.779-5.82-4.146-7.818-7.102c-1.999-2.951-3.45-6.273-4.363-9.965c-0.913-3.693-1.367-7.492-1.367-11.402
		c0-4.081,0.454-8.033,1.367-11.855c0.913-3.822,2.364-7.232,4.363-10.229c1.998-2.997,4.604-5.385,7.818-7.166
		c3.211-1.779,7.12-2.67,11.726-2.67c4.604,0,8.512,0.891,11.727,2.67c3.212,1.781,5.817,4.169,7.817,7.166
		c1.997,2.996,3.452,6.406,4.363,10.229c0.913,3.822,1.369,7.774,1.369,11.855C587.045,192.188,586.589,195.987,585.676,199.681z
		 M687.301,178.377c-0.999,1.824-2.324,3.237-3.975,4.234c-1.65,0.999-3.563,1.673-5.731,2.02c-2.171,0.349-4.43,0.521-6.773,0.521
		h-15.896V157.27h15.896c2.345,0,4.604,0.175,6.773,0.521c2.169,0.35,4.081,1.022,5.731,2.021s2.976,2.411,3.975,4.233
		c0.999,1.825,1.499,4.215,1.499,7.168S688.3,176.552,687.301,178.377z"/>
</g>
</svg>
